<?xml version="1.0" encoding="utf-8"?>
<!-- Svg Vector Icons : http://www.onlinewebfonts.com/icon -->
<!DOCTYPE svg PUBLIC "-//W3C//DTD SVG 1.1//EN" "http://www.w3.org/Graphics/SVG/1.1/DTD/svg11.dtd">
<svg version="1.1" xmlns="http://www.w3.org/2000/svg" xmlns:xlink="http://www.w3.org/1999/xlink" x="0px" y="0px" viewBox="0 0 1000 1000" enable-background="new 0 0 1000 1000" xml:space="preserve" width="50" height="50">
<metadata> Svg Vector Icons : http://www.onlinewebfonts.com/icon </metadata>
<g><g id="c133de6af664cd4f011a55de6b001b19"><path d="M935.6,10l-81.7,884.7L500,990l-353.9-95.3L64.4,10H935.6z M771,189.9H499.7H223.6l13.2,106.8h262.9h14.8l-14.8,6.1L246.4,408.4l8.4,104.4l244.9,0.8l131.3,0.4l-8.4,139.2l-122.9,34.6v-0.1l-1,0.3l-118.6-30l-7.2-86.4h-0.4h-110H262l14.4,166.9l223.3,66v-0.1l0.4,0.1l222.1-64.8L751,408.4H499.7h-0.6l0.6-0.3l260.5-111.4L771,189.9z"/></g></g>
</svg>