<?xml version="1.0" encoding="utf-8"?>
<!-- Svg Vector Icons : http://www.onlinewebfonts.com/icon -->
<!DOCTYPE svg PUBLIC "-//W3C//DTD SVG 1.1//EN" "http://www.w3.org/Graphics/SVG/1.1/DTD/svg11.dtd">
<svg version="1.1" xmlns="http://www.w3.org/2000/svg" xmlns:xlink="http://www.w3.org/1999/xlink" x="0px" y="0px" viewBox="0 0 1000 1000" enable-background="new 0 0 1000 1000" xml:space="preserve" width="50" height="50">
<metadata> Svg Vector Icons : http://www.onlinewebfonts.com/icon </metadata>
<g><path d="M434.9,332.7h-1.4c-7,27.3-14,60.2-22.4,88.1L374.7,537h121l-37.1-116.1C449.6,392.2,441.9,360,434.9,332.7z"/><path d="M10,10v980h980V10H10z M553.1,735.7l-42.7-133.6H360.7l-40.6,133.6h-88.8l151.1-471.5h109.8l153.2,471.5H553.1z M765.8,735.7H679V395h86.8V735.7z M721.7,346c-28.7,0-47.6-20.3-47.6-46.2c0-26.6,19.6-46.9,48.3-46.9c29.4,0,47.6,20.3,48.3,46.9C770.7,325.7,751.8,346,721.7,346z"/></g>
</svg>