<?xml version="1.0" encoding="utf-8"?>
<!-- Svg Vector Icons : http://www.onlinewebfonts.com/icon -->
<!DOCTYPE svg PUBLIC "-//W3C//DTD SVG 1.1//EN" "http://www.w3.org/Graphics/SVG/1.1/DTD/svg11.dtd">
<svg version="1.1" xmlns="http://www.w3.org/2000/svg" xmlns:xlink="http://www.w3.org/1999/xlink" x="0px" y="0px" viewBox="0 0 1000 1000" enable-background="new 0 0 1000 1000" xml:space="preserve" width="50" height="50">
<metadata> Svg Vector Icons : http://www.onlinewebfonts.com/icon </metadata>
<g><path d="M307.6,411.6H256l-21.2,128.7H283c0,0,58.7,1.8,61.4-83.4C347.2,408,307.6,411.6,307.6,411.6z M748.1,411.6h-51.6l-21.2,128.7h48.2c0,0,58.7,1.8,61.4-83.4C787.8,408,748.1,411.6,748.1,411.6z M500,195.4C229.4,195.4,10,331.8,10,500c0,168.2,219.4,304.6,490,304.6c270.6,0,490-136.4,490-304.6C990,331.8,770.6,195.4,500,195.4z M280.6,588.2l-52.2-0.5l-14.7,81h-55.9l50.4-304.6c0,0,71.6,1.1,118.6,0c47-1.1,93.2,38.1,71.6,126.9C372.4,596.9,280.6,588.2,280.6,588.2z M531.9,588.2c0,0,13.4-70.8,19.3-119.9c2.4-20.2,13-54.5-15-54.6c-23.4-0.1-58.4-0.3-58.4-0.3l-29.5,174.8H393l51.6-306h56.6L487,364.1h58.4c0,0,77.4-7.2,68.2,68.2c-9.2,75.4-26.4,155.9-26.4,155.9L531.9,588.2L531.9,588.2z M838.8,491c-25.8,105.9-117.7,97.2-117.7,97.2l-52.2-0.5l-14.7,81h-55.9l50.4-304.6c0,0,71.6,1.1,118.6,0C814.2,363,860.4,402.2,838.8,491z"/></g>
</svg>