<?xml version="1.0" encoding="utf-8"?>
<!-- Svg Vector Icons : http://www.onlinewebfonts.com/icon -->
<!DOCTYPE svg PUBLIC "-//W3C//DTD SVG 1.1//EN" "http://www.w3.org/Graphics/SVG/1.1/DTD/svg11.dtd">
<svg version="1.1" xmlns="http://www.w3.org/2000/svg" xmlns:xlink="http://www.w3.org/1999/xlink" x="0px" y="0px" viewBox="0 0 1000 1000" enable-background="new 0 0 1000 1000" xml:space="preserve" width="50" height="50">
<metadata> Svg Vector Icons : http://www.onlinewebfonts.com/icon </metadata>
<g><path d="M372.7,337.9c-22.1,0-37.8,2-46.3,3.9v148.5c9.8,2.6,22.8,3.3,39.1,3.3c59.9,0,96.4-29.3,96.4-80.8C462,364,428.1,337.9,372.7,337.9z"/><path d="M10,10v980h980V10H10z M504.3,509.3c-31.9,31.9-82.1,46.9-138.8,46.9c-15,0-28.7-0.7-39.1-2.6V719H247V285.8c28.7-5.2,68.4-9.1,122.5-9.1c58.6,0,101.6,12.4,129.6,35.8c26.1,21.5,43,56,43,97.1C542.1,451.3,529.1,485.8,504.3,509.3z M647.6,726.2c-38.4,0-73-9.8-96.4-22.8l15.6-58c18.2,11.1,52.8,22.8,81.4,22.8c35.2,0,50.8-14.3,50.8-35.2c0-21.5-13-32.6-52.1-46.3c-61.9-21.5-88-55.4-87.3-92.5c0-56,46.3-99.7,119.9-99.7c35.2,0,65.8,9.1,84,18.9l-15.6,56.7c-13.7-7.8-39.1-18.2-67.1-18.2c-28.7,0-44.3,13.7-44.3,33.2c0,20.2,15,30,55.4,44.3c57.3,20.8,84,50.2,84.7,97.1C776.6,683.9,731.6,726.2,647.6,726.2z"/></g>
</svg>