<svg id="Calque_1" data-name="Calque 1" xmlns="http://www.w3.org/2000/svg" viewBox="0 0 980 980" width="50" height="50"><path d="M506.4,531.3l113,301.4a44.8,44.8,0,0,0,2.6,4.9,376.54,376.54,0,0,1-225.8,5.7l110.2-312ZM867.5,500c0,132-73.5,247.3-182.7,309.4L797,493.3c21-51.1,27.9-91.9,27.9-128.2a263.93,263.93,0,0,0-2.5-36.8A347.86,347.86,0,0,1,867.5,500Zm-735,0a348.62,348.62,0,0,1,31.8-145.7L339.6,822.1C217,764.1,132.5,641.7,132.5,500ZM193,303.4c65.7-97.2,178.7-161.3,307.1-161.3,95.7,0,182.8,35.6,248.2,94-1.6-.1-3.1-.3-4.8-.3-36.1,0-61.7,30.6-61.7,63.5,0,29.5,17.5,54.5,36.1,83.9,14,23.8,30.3,54.5,30.3,98.7,0,30.6-12.1,66.2-28,115.7L683.5,716.9,550.7,332.2c22.1-1.1,42.1-3.4,42.1-3.4,19.8-2.3,17.5-30.6-2.3-29.5,0,0-59.5,4.5-98,4.5-36.1,0-96.8-4.5-96.8-4.5-19.8-1.1-22.1,28.4-2.3,29.5,0,0,18.7,2.3,38.5,3.4L489.2,485,408.8,719.9l-134-387.7c22.1-1.1,42.1-3.4,42.1-3.4,19.8-2.3,17.5-30.6-2.4-29.5,0,0-59.5,4.5-97.9,4.5-6.9,0-15-.2-23.6-.4ZM825.4,10H174.6C84.1,10,10,84.1,10,174.6V825.4C10,915.9,84.1,990,174.6,990H825.4C915.9,990,990,915.9,990,825.4V174.6C990,84.1,915.9,10,825.4,10ZM928.8,500c0,236.8-192,428.8-428.8,428.8S71.2,736.8,71.2,500,263.2,71.2,500,71.2,928.8,263.2,928.8,500Z" transform="translate(-10 -10)"/></svg>